<mxfile host="Electron" modified="2024-02-16T21:53:19.880Z" agent="Mozilla/5.0 (Windows NT 10.0; Win64; x64) AppleWebKit/537.36 (KHTML, like Gecko) draw.io/22.1.11 Chrome/114.0.5735.289 Electron/25.9.8 Safari/537.36" etag="pP1_ilezttwMCOHKWAdG" version="22.1.11" type="device">
  <diagram id="VXh5Syn-KjilQUAD4XYl" name="Страница 1">
    <mxGraphModel dx="1863" dy="613" grid="1" gridSize="10" guides="1" tooltips="1" connect="1" arrows="1" fold="1" page="1" pageScale="1" pageWidth="827" pageHeight="1169" math="0" shadow="0">
      <root>
        <mxCell id="0" />
        <mxCell id="1" parent="0" />
        <mxCell id="1EkspMZ3_wFELp9it4_a-18" style="edgeStyle=orthogonalEdgeStyle;rounded=0;orthogonalLoop=1;jettySize=auto;html=1;" parent="1" source="1IcHTSQ3taOuulY7qSm2-5" target="1IcHTSQ3taOuulY7qSm2-14" edge="1">
          <mxGeometry relative="1" as="geometry">
            <Array as="points">
              <mxPoint x="360" y="481" />
            </Array>
          </mxGeometry>
        </mxCell>
        <mxCell id="1IcHTSQ3taOuulY7qSm2-5" value="test_template_and_competence" style="swimlane;fontStyle=0;childLayout=stackLayout;horizontal=1;startSize=26;horizontalStack=0;resizeParent=1;resizeParentMax=0;resizeLast=0;collapsible=1;marginBottom=0;align=center;fontSize=14;" parent="1" vertex="1">
          <mxGeometry x="260" y="354" width="260" height="116" as="geometry" />
        </mxCell>
        <mxCell id="1IcHTSQ3taOuulY7qSm2-6" value="template_id" style="text;strokeColor=none;fillColor=none;spacingLeft=4;spacingRight=4;overflow=hidden;rotatable=0;points=[[0,0.5],[1,0.5]];portConstraint=eastwest;fontSize=12;" parent="1IcHTSQ3taOuulY7qSm2-5" vertex="1">
          <mxGeometry y="26" width="260" height="30" as="geometry" />
        </mxCell>
        <mxCell id="1IcHTSQ3taOuulY7qSm2-7" value="competence_id" style="text;strokeColor=none;fillColor=none;spacingLeft=4;spacingRight=4;overflow=hidden;rotatable=0;points=[[0,0.5],[1,0.5]];portConstraint=eastwest;fontSize=12;" parent="1IcHTSQ3taOuulY7qSm2-5" vertex="1">
          <mxGeometry y="56" width="260" height="30" as="geometry" />
        </mxCell>
        <mxCell id="1EkspMZ3_wFELp9it4_a-5" value="competence_need_id" style="text;strokeColor=none;fillColor=none;spacingLeft=4;spacingRight=4;overflow=hidden;rotatable=0;points=[[0,0.5],[1,0.5]];portConstraint=eastwest;fontSize=12;" parent="1IcHTSQ3taOuulY7qSm2-5" vertex="1">
          <mxGeometry y="86" width="260" height="30" as="geometry" />
        </mxCell>
        <mxCell id="1IcHTSQ3taOuulY7qSm2-21" value="skill" style="swimlane;fontStyle=0;childLayout=stackLayout;horizontal=1;startSize=26;horizontalStack=0;resizeParent=1;resizeParentMax=0;resizeLast=0;collapsible=1;marginBottom=0;align=center;fontSize=14;" parent="1" vertex="1">
          <mxGeometry y="630" width="190" height="146" as="geometry" />
        </mxCell>
        <mxCell id="1IcHTSQ3taOuulY7qSm2-22" value="id" style="text;strokeColor=none;fillColor=none;spacingLeft=4;spacingRight=4;overflow=hidden;rotatable=0;points=[[0,0.5],[1,0.5]];portConstraint=eastwest;fontSize=12;" parent="1IcHTSQ3taOuulY7qSm2-21" vertex="1">
          <mxGeometry y="26" width="190" height="30" as="geometry" />
        </mxCell>
        <mxCell id="RadNlG-xPnbxS1g-nRUa-3" value="cabinet_id" style="text;strokeColor=none;fillColor=none;spacingLeft=4;spacingRight=4;overflow=hidden;rotatable=0;points=[[0,0.5],[1,0.5]];portConstraint=eastwest;fontSize=12;" parent="1IcHTSQ3taOuulY7qSm2-21" vertex="1">
          <mxGeometry y="56" width="190" height="30" as="geometry" />
        </mxCell>
        <mxCell id="1IcHTSQ3taOuulY7qSm2-23" value="title" style="text;strokeColor=none;fillColor=none;spacingLeft=4;spacingRight=4;overflow=hidden;rotatable=0;points=[[0,0.5],[1,0.5]];portConstraint=eastwest;fontSize=12;" parent="1IcHTSQ3taOuulY7qSm2-21" vertex="1">
          <mxGeometry y="86" width="190" height="30" as="geometry" />
        </mxCell>
        <mxCell id="1IcHTSQ3taOuulY7qSm2-31" value="test_module_link" style="text;strokeColor=none;fillColor=none;spacingLeft=4;spacingRight=4;overflow=hidden;rotatable=0;points=[[0,0.5],[1,0.5]];portConstraint=eastwest;fontSize=12;" parent="1IcHTSQ3taOuulY7qSm2-21" vertex="1">
          <mxGeometry y="116" width="190" height="30" as="geometry" />
        </mxCell>
        <mxCell id="1EkspMZ3_wFELp9it4_a-17" style="edgeStyle=orthogonalEdgeStyle;rounded=0;orthogonalLoop=1;jettySize=auto;html=1;entryX=1;entryY=0.5;entryDx=0;entryDy=0;" parent="1" source="1IcHTSQ3taOuulY7qSm2-25" target="RadNlG-xPnbxS1g-nRUa-1" edge="1">
          <mxGeometry relative="1" as="geometry" />
        </mxCell>
        <mxCell id="1IcHTSQ3taOuulY7qSm2-25" value="competence_and_skill" style="swimlane;fontStyle=0;childLayout=stackLayout;horizontal=1;startSize=26;horizontalStack=0;resizeParent=1;resizeParentMax=0;resizeLast=0;collapsible=1;marginBottom=0;align=center;fontSize=14;" parent="1" vertex="1">
          <mxGeometry x="260" y="556" width="196" height="116" as="geometry" />
        </mxCell>
        <mxCell id="1IcHTSQ3taOuulY7qSm2-26" value="competence_id" style="text;strokeColor=none;fillColor=none;spacingLeft=4;spacingRight=4;overflow=hidden;rotatable=0;points=[[0,0.5],[1,0.5]];portConstraint=eastwest;fontSize=12;" parent="1IcHTSQ3taOuulY7qSm2-25" vertex="1">
          <mxGeometry y="26" width="196" height="30" as="geometry" />
        </mxCell>
        <mxCell id="1IcHTSQ3taOuulY7qSm2-27" value="skill_id" style="text;strokeColor=none;fillColor=none;spacingLeft=4;spacingRight=4;overflow=hidden;rotatable=0;points=[[0,0.5],[1,0.5]];portConstraint=eastwest;fontSize=12;" parent="1IcHTSQ3taOuulY7qSm2-25" vertex="1">
          <mxGeometry y="56" width="196" height="30" as="geometry" />
        </mxCell>
        <mxCell id="1IcHTSQ3taOuulY7qSm2-28" value="skill_need_id" style="text;strokeColor=none;fillColor=none;spacingLeft=4;spacingRight=4;overflow=hidden;rotatable=0;points=[[0,0.5],[1,0.5]];portConstraint=eastwest;fontSize=12;" parent="1IcHTSQ3taOuulY7qSm2-25" vertex="1">
          <mxGeometry y="86" width="196" height="30" as="geometry" />
        </mxCell>
        <mxCell id="1IcHTSQ3taOuulY7qSm2-10" value="competence" style="swimlane;fontStyle=0;childLayout=stackLayout;horizontal=1;startSize=26;horizontalStack=0;resizeParent=1;resizeParentMax=0;resizeLast=0;collapsible=1;marginBottom=0;align=center;fontSize=14;" parent="1" vertex="1">
          <mxGeometry y="440" width="191" height="116" as="geometry" />
        </mxCell>
        <mxCell id="1IcHTSQ3taOuulY7qSm2-14" value="id" style="text;strokeColor=none;fillColor=none;spacingLeft=4;spacingRight=4;overflow=hidden;rotatable=0;points=[[0,0.5],[1,0.5]];portConstraint=eastwest;fontSize=12;" parent="1IcHTSQ3taOuulY7qSm2-10" vertex="1">
          <mxGeometry y="26" width="191" height="30" as="geometry" />
        </mxCell>
        <mxCell id="RadNlG-xPnbxS1g-nRUa-1" value="cabinet_id" style="text;strokeColor=none;fillColor=none;spacingLeft=4;spacingRight=4;overflow=hidden;rotatable=0;points=[[0,0.5],[1,0.5]];portConstraint=eastwest;fontSize=12;" parent="1IcHTSQ3taOuulY7qSm2-10" vertex="1">
          <mxGeometry y="56" width="191" height="30" as="geometry" />
        </mxCell>
        <mxCell id="1IcHTSQ3taOuulY7qSm2-11" value="title" style="text;strokeColor=none;fillColor=none;spacingLeft=4;spacingRight=4;overflow=hidden;rotatable=0;points=[[0,0.5],[1,0.5]];portConstraint=eastwest;fontSize=12;" parent="1IcHTSQ3taOuulY7qSm2-10" vertex="1">
          <mxGeometry y="86" width="191" height="30" as="geometry" />
        </mxCell>
        <mxCell id="RadNlG-xPnbxS1g-nRUa-5" value="cabinet (auth)" style="swimlane;fontStyle=0;childLayout=stackLayout;horizontal=1;startSize=26;horizontalStack=0;resizeParent=1;resizeParentMax=0;resizeLast=0;collapsible=1;marginBottom=0;align=center;fontSize=14;fillColor=#dae8fc;strokeColor=#6c8ebf;" parent="1" vertex="1">
          <mxGeometry x="-250" y="240" width="160" height="56" as="geometry" />
        </mxCell>
        <mxCell id="RadNlG-xPnbxS1g-nRUa-6" value="id" style="text;strokeColor=none;fillColor=none;spacingLeft=4;spacingRight=4;overflow=hidden;rotatable=0;points=[[0,0.5],[1,0.5]];portConstraint=eastwest;fontSize=12;" parent="RadNlG-xPnbxS1g-nRUa-5" vertex="1">
          <mxGeometry y="26" width="160" height="30" as="geometry" />
        </mxCell>
        <mxCell id="1EkspMZ3_wFELp9it4_a-1" value="test_template" style="swimlane;fontStyle=0;childLayout=stackLayout;horizontal=1;startSize=26;horizontalStack=0;resizeParent=1;resizeParentMax=0;resizeLast=0;collapsible=1;marginBottom=0;align=center;fontSize=14;" parent="1" vertex="1">
          <mxGeometry y="240" width="191" height="116" as="geometry" />
        </mxCell>
        <mxCell id="1EkspMZ3_wFELp9it4_a-2" value="id" style="text;strokeColor=none;fillColor=none;spacingLeft=4;spacingRight=4;overflow=hidden;rotatable=0;points=[[0,0.5],[1,0.5]];portConstraint=eastwest;fontSize=12;" parent="1EkspMZ3_wFELp9it4_a-1" vertex="1">
          <mxGeometry y="26" width="191" height="30" as="geometry" />
        </mxCell>
        <mxCell id="1EkspMZ3_wFELp9it4_a-3" value="cabinet_id" style="text;strokeColor=none;fillColor=none;spacingLeft=4;spacingRight=4;overflow=hidden;rotatable=0;points=[[0,0.5],[1,0.5]];portConstraint=eastwest;fontSize=12;" parent="1EkspMZ3_wFELp9it4_a-1" vertex="1">
          <mxGeometry y="56" width="191" height="30" as="geometry" />
        </mxCell>
        <mxCell id="1EkspMZ3_wFELp9it4_a-4" value="title" style="text;strokeColor=none;fillColor=none;spacingLeft=4;spacingRight=4;overflow=hidden;rotatable=0;points=[[0,0.5],[1,0.5]];portConstraint=eastwest;fontSize=12;" parent="1EkspMZ3_wFELp9it4_a-1" vertex="1">
          <mxGeometry y="86" width="191" height="30" as="geometry" />
        </mxCell>
        <mxCell id="1EkspMZ3_wFELp9it4_a-6" value="competence_need" style="swimlane;fontStyle=0;childLayout=stackLayout;horizontal=1;startSize=26;horizontalStack=0;resizeParent=1;resizeParentMax=0;resizeLast=0;collapsible=1;marginBottom=0;align=center;fontSize=14;" parent="1" vertex="1">
          <mxGeometry x="580" y="384" width="180" height="86" as="geometry" />
        </mxCell>
        <mxCell id="1EkspMZ3_wFELp9it4_a-7" value="id" style="text;strokeColor=none;fillColor=none;spacingLeft=4;spacingRight=4;overflow=hidden;rotatable=0;points=[[0,0.5],[1,0.5]];portConstraint=eastwest;fontSize=12;" parent="1EkspMZ3_wFELp9it4_a-6" vertex="1">
          <mxGeometry y="26" width="180" height="30" as="geometry" />
        </mxCell>
        <mxCell id="1EkspMZ3_wFELp9it4_a-8" value="title" style="text;strokeColor=none;fillColor=none;spacingLeft=4;spacingRight=4;overflow=hidden;rotatable=0;points=[[0,0.5],[1,0.5]];portConstraint=eastwest;fontSize=12;" parent="1EkspMZ3_wFELp9it4_a-6" vertex="1">
          <mxGeometry y="56" width="180" height="30" as="geometry" />
        </mxCell>
        <mxCell id="1EkspMZ3_wFELp9it4_a-10" value="skill_need" style="swimlane;fontStyle=0;childLayout=stackLayout;horizontal=1;startSize=26;horizontalStack=0;resizeParent=1;resizeParentMax=0;resizeLast=0;collapsible=1;marginBottom=0;align=center;fontSize=14;" parent="1" vertex="1">
          <mxGeometry x="530" y="586" width="170" height="86" as="geometry" />
        </mxCell>
        <mxCell id="1EkspMZ3_wFELp9it4_a-11" value="id" style="text;strokeColor=none;fillColor=none;spacingLeft=4;spacingRight=4;overflow=hidden;rotatable=0;points=[[0,0.5],[1,0.5]];portConstraint=eastwest;fontSize=12;" parent="1EkspMZ3_wFELp9it4_a-10" vertex="1">
          <mxGeometry y="26" width="170" height="30" as="geometry" />
        </mxCell>
        <mxCell id="1EkspMZ3_wFELp9it4_a-12" value="title" style="text;strokeColor=none;fillColor=none;spacingLeft=4;spacingRight=4;overflow=hidden;rotatable=0;points=[[0,0.5],[1,0.5]];portConstraint=eastwest;fontSize=12;" parent="1EkspMZ3_wFELp9it4_a-10" vertex="1">
          <mxGeometry y="56" width="170" height="30" as="geometry" />
        </mxCell>
        <mxCell id="1EkspMZ3_wFELp9it4_a-13" style="edgeStyle=orthogonalEdgeStyle;rounded=0;orthogonalLoop=1;jettySize=auto;html=1;entryX=0;entryY=0.5;entryDx=0;entryDy=0;" parent="1" source="1IcHTSQ3taOuulY7qSm2-27" target="1EkspMZ3_wFELp9it4_a-11" edge="1">
          <mxGeometry relative="1" as="geometry" />
        </mxCell>
        <mxCell id="1EkspMZ3_wFELp9it4_a-14" style="edgeStyle=orthogonalEdgeStyle;rounded=0;orthogonalLoop=1;jettySize=auto;html=1;" parent="1" source="1IcHTSQ3taOuulY7qSm2-7" target="1EkspMZ3_wFELp9it4_a-7" edge="1">
          <mxGeometry relative="1" as="geometry" />
        </mxCell>
        <mxCell id="1EkspMZ3_wFELp9it4_a-16" style="edgeStyle=orthogonalEdgeStyle;rounded=0;orthogonalLoop=1;jettySize=auto;html=1;entryX=1.007;entryY=-0.04;entryDx=0;entryDy=0;entryPerimeter=0;" parent="1" source="1IcHTSQ3taOuulY7qSm2-25" target="1IcHTSQ3taOuulY7qSm2-23" edge="1">
          <mxGeometry relative="1" as="geometry" />
        </mxCell>
        <mxCell id="1EkspMZ3_wFELp9it4_a-19" style="edgeStyle=orthogonalEdgeStyle;rounded=0;orthogonalLoop=1;jettySize=auto;html=1;entryX=0.998;entryY=0.093;entryDx=0;entryDy=0;entryPerimeter=0;" parent="1" source="1IcHTSQ3taOuulY7qSm2-5" target="1EkspMZ3_wFELp9it4_a-3" edge="1">
          <mxGeometry relative="1" as="geometry" />
        </mxCell>
        <mxCell id="1EkspMZ3_wFELp9it4_a-22" style="edgeStyle=orthogonalEdgeStyle;rounded=0;orthogonalLoop=1;jettySize=auto;html=1;entryX=0.549;entryY=0.973;entryDx=0;entryDy=0;entryPerimeter=0;" parent="1" source="1IcHTSQ3taOuulY7qSm2-14" target="RadNlG-xPnbxS1g-nRUa-6" edge="1">
          <mxGeometry relative="1" as="geometry">
            <Array as="points">
              <mxPoint x="-160" y="481" />
              <mxPoint x="-160" y="300" />
              <mxPoint x="-162" y="300" />
            </Array>
            <mxPoint x="-160" y="330" as="targetPoint" />
          </mxGeometry>
        </mxCell>
        <mxCell id="1EkspMZ3_wFELp9it4_a-26" value="test_module" style="shape=note;size=20;whiteSpace=wrap;html=1;fillColor=#dae8fc;strokeColor=#6c8ebf;" parent="1" vertex="1">
          <mxGeometry x="-330" y="676" width="100" height="100" as="geometry" />
        </mxCell>
        <mxCell id="1EkspMZ3_wFELp9it4_a-28" style="edgeStyle=orthogonalEdgeStyle;rounded=0;orthogonalLoop=1;jettySize=auto;html=1;entryX=1.026;entryY=0.844;entryDx=0;entryDy=0;entryPerimeter=0;" parent="1" source="1IcHTSQ3taOuulY7qSm2-31" target="1EkspMZ3_wFELp9it4_a-26" edge="1">
          <mxGeometry relative="1" as="geometry" />
        </mxCell>
        <mxCell id="5FeCrNispJwKLGFQggn7-1" style="edgeStyle=orthogonalEdgeStyle;rounded=0;orthogonalLoop=1;jettySize=auto;html=1;entryX=0.313;entryY=1.133;entryDx=0;entryDy=0;entryPerimeter=0;" parent="1" source="1IcHTSQ3taOuulY7qSm2-21" target="RadNlG-xPnbxS1g-nRUa-6" edge="1">
          <mxGeometry relative="1" as="geometry">
            <Array as="points">
              <mxPoint x="-200" y="703" />
            </Array>
            <mxPoint x="-198.96000000000004" y="330.20000000000005" as="targetPoint" />
          </mxGeometry>
        </mxCell>
        <mxCell id="5FeCrNispJwKLGFQggn7-2" style="edgeStyle=orthogonalEdgeStyle;rounded=0;orthogonalLoop=1;jettySize=auto;html=1;entryX=1;entryY=0.5;entryDx=0;entryDy=0;" parent="1" source="1EkspMZ3_wFELp9it4_a-2" target="RadNlG-xPnbxS1g-nRUa-6" edge="1">
          <mxGeometry relative="1" as="geometry" />
        </mxCell>
      </root>
    </mxGraphModel>
  </diagram>
</mxfile>
